<svg width="14" height="22" viewBox="0 0 14 22" fill="none" xmlns="http://www.w3.org/2000/svg">
<path d="M13.5 7C13.5 7.85519 13.1018 9.16164 12.4462 10.7006C11.7997 12.2184 10.9341 13.8929 10.0632 15.4564C9.19316 17.0184 8.32247 18.4614 7.66892 19.5144C7.40579 19.9383 7.17806 20.2987 7 20.5779C6.82194 20.2987 6.59421 19.9383 6.33108 19.5144C5.67753 18.4614 4.80684 17.0184 3.93681 15.4564C3.06589 13.8929 2.20026 12.2184 1.55375 10.7006C0.898182 9.16164 0.5 7.85519 0.5 7C0.5 3.41015 3.41015 0.5 7 0.5C10.5899 0.5 13.5 3.41015 13.5 7Z" stroke="#519938"/>
<circle cx="7" cy="7" r="3" stroke="#519938"/>
</svg>
