<svg width="37" height="37" viewBox="0 0 37 37" fill="none" xmlns="http://www.w3.org/2000/svg">
<g clip-path="url(#clip0_2_323)">
<path d="M32.6079 28.4169L27.4877 21.7659H28.9857C28.9867 21.7659 28.9881 21.7659 28.9891 21.7659C29.6865 21.7659 30.2517 21.2006 30.2517 20.5033C30.2517 20.1837 30.1332 19.892 29.9374 19.6694L25.1287 13.4225H26.8887C26.8903 13.4225 26.8913 13.4225 26.8921 13.4225C27.5896 13.4225 28.1547 12.8572 28.1547 12.1599C28.1547 11.8404 28.0362 11.5486 27.8404 11.326L19.5004 0.492422C19.2613 0.181986 18.8916 0 18.4999 0C18.1081 0 17.7385 0.181986 17.4994 0.492422L9.11055 11.3897C8.81711 11.771 8.76577 12.2858 8.97822 12.7176C9.19085 13.1491 9.63007 13.4227 10.111 13.4227H11.8711L7.01342 19.7332C6.71998 20.1144 6.66864 20.6294 6.8811 21.061C7.09372 21.4927 7.53294 21.7661 8.01392 21.7661H9.51189L4.39205 28.417C4.09862 28.7982 4.04727 29.3132 4.25973 29.7448C4.47235 30.1765 4.91158 30.4499 5.39255 30.4499H13.9619V35.7375C13.9619 36.4348 14.527 37.0002 15.2245 37.0002H21.775C22.4724 37.0002 23.0376 36.4348 23.0376 35.7375V30.4499H31.6072C32.0882 30.4499 32.5276 30.1765 32.7402 29.7448C32.9527 29.313 32.9015 28.798 32.6079 28.4169ZM20.5125 34.4748H16.4873V30.4497H20.5125V34.4748ZM21.7751 27.9244H15.2247H7.95803L13.0779 21.2735C13.3713 20.8923 13.4226 20.3773 13.2102 19.9457C12.9976 19.5141 12.5583 19.2407 12.0774 19.2407H10.5794L15.4371 12.9301C15.7305 12.5489 15.7819 12.034 15.5694 11.6023C15.3568 11.1707 14.9176 10.8973 14.4366 10.8973H12.6764L18.4999 3.33231L24.3234 10.8973H22.5633C22.0824 10.8973 21.643 11.1707 21.4305 11.6023C21.2181 12.034 21.2694 12.5489 21.5628 12.9301L26.4207 19.2407H24.9226C24.4416 19.2407 24.0022 19.5141 23.7898 19.9457C23.5773 20.3773 23.6287 20.8923 23.9221 21.2735L29.0423 27.9244H21.7751Z" fill="#004D1B"/>
<path d="M19.9465 8.83105C19.9465 8.0324 19.2975 7.38257 18.4997 7.38257C17.7021 7.38257 17.0529 8.03223 17.0529 8.83105C17.0529 9.62599 17.7019 10.2726 18.4997 10.2726C19.2975 10.2726 19.9465 9.62599 19.9465 8.83105Z" fill="#004D1B"/>
<path d="M16.3114 16.9788C15.5137 16.9788 14.8646 17.6284 14.8646 18.4272C14.8646 19.2222 15.5136 19.8688 16.3114 19.8688C17.109 19.8688 17.7582 19.2222 17.7582 18.4272C17.758 17.6284 17.109 16.9788 16.3114 16.9788Z" fill="#004D1B"/>
<path d="M22.135 16.0702C22.135 15.2715 21.4861 14.6217 20.6882 14.6217C19.8906 14.6217 19.2415 15.2714 19.2415 16.0702C19.2415 16.8651 19.8904 17.5118 20.6882 17.5118C21.4861 17.5118 22.135 16.8651 22.135 16.0702Z" fill="#004D1B"/>
<path d="M15.1078 23.3755C14.7213 23.3755 14.3575 23.5263 14.0836 23.8002C13.5215 24.3624 13.5232 25.2785 14.0871 25.8426C14.3619 26.1172 14.7257 26.2682 15.1119 26.2682C15.4959 26.2682 15.8573 26.1184 16.1294 25.8464C16.4033 25.5726 16.5543 25.209 16.5546 24.823C16.555 24.4364 16.4041 24.0728 16.1302 23.7989C15.8573 23.5258 15.4942 23.3755 15.1078 23.3755Z" fill="#004D1B"/>
<path d="M22.0579 22.5337C21.6712 22.5337 21.3074 22.6845 21.0335 22.9584C20.7593 23.2327 20.6095 23.5972 20.6122 23.985C20.6145 24.3682 20.7655 24.729 21.0374 25.0009C21.3116 25.2753 21.6755 25.4264 22.0618 25.4264C22.4458 25.4264 22.8073 25.2766 23.0793 25.0046C23.3532 24.7312 23.5044 24.3675 23.5047 23.9812C23.5051 23.595 23.3544 23.2313 23.0808 22.9574C22.8078 22.684 22.4443 22.5337 22.0579 22.5337Z" fill="#004D1B"/>
</g>
<defs>
<clipPath id="clip0_2_323">
<rect width="37" height="37" fill="white"/>
</clipPath>
</defs>
</svg>
