<svg width="67" height="67" viewBox="0 0 67 67" fill="none" xmlns="http://www.w3.org/2000/svg">
<g clip-path="url(#clip0_2_34)">
<path d="M35.6615 31.3386H35.2746C32.7016 33.3625 29.4642 34.5804 25.9358 34.5804C22.4074 34.5804 19.17 33.3625 16.597 31.3384H16.2102H5.40375V48.6286H46.4681V31.3384L35.6615 31.3386Z" fill="#0E774B"/>
<path d="M63.7584 52.9515H62.6776V41.0644H58.2527L57.1719 30.258H47.5489V20.5323H42.0905C42.1142 20.1736 42.1456 19.8169 42.1456 19.4515C42.1456 15.0965 40.4101 11.1446 37.6058 8.22901L38.3634 7.47147L40.301 9.40913L41.829 7.88113L36.4259 2.47781L34.8979 4.00581L36.8356 5.94347L36.0068 6.77225C33.503 4.77949 30.4016 3.52168 27.017 3.29691V2.16128H30.2588V0H21.6137V2.16128H24.8555V3.29714C21.471 3.52191 18.3696 4.78087 15.8657 6.77248L15.037 5.9437L16.9746 4.00604L15.4466 2.47804L10.0428 7.88113L11.5708 9.40913L13.5085 7.47147L14.266 8.22901C11.4618 11.1446 9.72632 15.0965 9.72632 19.4515C9.72632 19.8167 9.75767 20.1734 9.78141 20.5323H4.32299V52.9515H3.24247C1.45511 52.9515 0.000427246 54.406 0.000427246 56.1934C0.000427246 57.9807 1.45488 59.4354 3.24224 59.4354H4.32276H6.48405H9.72585C9.72585 63.6056 13.1191 67 17.2902 67C21.4613 67 24.8546 63.6058 24.8546 59.4354H45.3867C45.3867 63.6056 48.7799 67 52.951 67C57.1222 67 60.5154 63.6058 60.5154 59.4354H62.6767H63.7575C65.5448 59.4354 66.9993 57.9809 66.9993 56.1934C66.9993 54.4058 65.5457 52.9515 63.7584 52.9515ZM55.2158 32.4192L56.0804 41.0644H47.5486V32.4192H55.2158ZM25.9358 5.40332C33.6819 5.40332 39.984 11.7055 39.984 19.4518C39.984 27.198 33.6819 33.5 25.9358 33.5C18.1898 33.5 11.8876 27.1976 11.8876 19.4515C11.8876 11.7055 18.1898 5.40332 25.9358 5.40332ZM4.32299 57.2741H3.24247C2.64699 57.2741 2.16194 56.79 2.16194 56.1934C2.16194 55.5967 2.64722 55.1126 3.24247 55.1126H4.32299V57.2741ZM17.2907 64.8385C14.3115 64.8385 11.8876 62.4146 11.8876 59.4352C11.8876 56.4557 14.3115 54.0321 17.2907 54.0321C20.2699 54.0321 22.6938 56.4559 22.6938 59.4354C22.6938 62.4148 20.2701 64.8385 17.2907 64.8385ZM24.5365 57.2741C23.6037 54.1531 20.7098 51.8708 17.2907 51.8708C13.8716 51.8708 10.9777 54.1531 10.0449 57.2741H6.48428V52.9515V22.6936H10.0525C11.5589 30.083 18.1077 35.6613 25.9358 35.6613C33.7639 35.6613 40.3126 30.083 41.8191 22.6936H45.3874V30.2582V41.0646V43.2259V57.2743H24.5365V57.2741ZM52.9517 64.8385C49.9725 64.8385 47.5486 62.4146 47.5486 59.4352C47.5486 56.4557 49.9725 54.0318 52.9517 54.0318C55.931 54.0318 58.3548 56.4557 58.3548 59.4352C58.3548 62.4146 55.9312 64.8385 52.9517 64.8385ZM60.5166 57.2741H60.1977C59.265 54.1531 56.3711 51.8708 52.9517 51.8708C50.8359 51.8708 48.9231 52.7461 47.5486 54.152V43.2257H58.4685H60.5163V52.9515V57.2741H60.5166ZM63.7584 57.2741H62.6776V55.1128H63.7584C64.3539 55.1128 64.8389 55.597 64.8389 56.1936C64.8389 56.7902 64.3536 57.2741 63.7584 57.2741Z" fill="#303030"/>
<path d="M17.2907 56.1934C15.5033 56.1934 14.0489 57.6478 14.0489 59.4354C14.0489 61.2228 15.5033 62.6774 17.2907 62.6774C19.0781 62.6774 20.5325 61.223 20.5325 59.4354C20.5327 57.6478 19.0781 56.1934 17.2907 56.1934ZM17.2907 60.5159C16.6952 60.5159 16.2102 60.0318 16.2102 59.4352C16.2102 58.8385 16.6955 58.3544 17.2907 58.3544C17.8859 58.3544 18.3712 58.8385 18.3712 59.4352C18.3712 60.0318 17.8862 60.5159 17.2907 60.5159Z" fill="#303030"/>
<path d="M52.9518 56.1934C51.1644 56.1934 49.71 57.6478 49.71 59.4354C49.71 61.2228 51.1644 62.6774 52.9518 62.6774C54.7391 62.6774 56.1936 61.223 56.1936 59.4354C56.1938 57.6478 54.7391 56.1934 52.9518 56.1934ZM52.9518 60.5159C52.3563 60.5159 51.871 60.0318 51.871 59.4352C51.871 58.8385 52.3563 58.3544 52.9518 58.3544C53.5473 58.3544 54.0323 58.8385 54.0323 59.4352C54.0323 60.0318 53.5473 60.5159 52.9518 60.5159Z" fill="#303030"/>
<path d="M22.6941 19.4515C22.6941 21.2389 24.1485 22.6936 25.9359 22.6936C27.7232 22.6936 29.1777 21.2391 29.1777 19.4515C29.1777 17.664 27.7232 16.2095 25.9359 16.2095C25.7521 16.2095 25.5749 16.2344 25.3987 16.2634L19.1915 9.02228L17.5501 10.4292L23.485 17.353C22.9986 17.9203 22.6941 18.6477 22.6941 19.4515ZM27.0166 19.4515C27.0166 20.047 26.5314 20.5323 25.9361 20.5323C25.3406 20.5323 24.8556 20.047 24.8556 19.4515C24.8556 18.8561 25.3409 18.3708 25.9361 18.3708C26.5314 18.371 27.0166 18.8561 27.0166 19.4515Z" fill="#303030"/>
<path d="M24.9503 31.29L25.1276 29.1363C20.1275 28.7234 16.2102 24.47 16.2102 19.4517C16.2102 17.0764 17.0855 14.7854 18.6751 12.998L17.0606 11.5618C15.1188 13.7447 14.0489 16.5467 14.0489 19.4514C14.0489 25.5862 18.8371 30.7862 24.9503 31.29Z" fill="#303030"/>
</g>
<defs>
<clipPath id="clip0_2_34">
<rect width="67" height="67" fill="white"/>
</clipPath>
</defs>
</svg>
