<svg width="67" height="67" viewBox="0 0 67 67" fill="none" xmlns="http://www.w3.org/2000/svg">
<path d="M35.6614 31.3386H35.2746C32.7015 33.3625 29.4641 34.5804 25.9358 34.5804C22.4074 34.5804 19.17 33.3625 16.5969 31.3384H16.2101H5.40369V48.6286H46.468V31.3384L35.6614 31.3386Z" fill="#478033"/>
<path d="M63.7583 52.9515H62.6776V41.0644H58.2526L57.1719 30.258H47.5488V20.5323H42.0904C42.1141 20.1736 42.1455 19.8169 42.1455 19.4515C42.1455 15.0965 40.41 11.1446 37.6058 8.22901L38.3633 7.47147L40.301 9.40913L41.829 7.88113L36.4259 2.47781L34.8979 4.00581L36.8355 5.94347L36.0068 6.77225C33.5029 4.77949 30.4015 3.52168 27.017 3.29691V2.16128H30.2588V0H21.6137V2.16128H24.8555V3.29714C21.471 3.52191 18.3695 4.78087 15.8657 6.77248L15.0369 5.9437L16.9746 4.00604L15.4466 2.47804L10.0428 7.88113L11.5708 9.40913L13.5084 7.47147L14.266 8.22901C11.4617 11.1446 9.72625 15.0965 9.72625 19.4515C9.72625 19.8167 9.75761 20.1734 9.78135 20.5323H4.32293V52.9515H3.24241C1.45505 52.9515 0.000366211 54.406 0.000366211 56.1934C0.000366211 57.9807 1.45482 59.4354 3.24218 59.4354H4.3227H6.48398H9.72579C9.72579 63.6056 13.1191 67 17.2902 67C21.4613 67 24.8545 63.6058 24.8545 59.4354H45.3866C45.3866 63.6056 48.7799 67 52.951 67C57.1221 67 60.5154 63.6058 60.5154 59.4354H62.6766H63.7574C65.5448 59.4354 66.9992 57.9809 66.9992 56.1934C66.9992 54.4058 65.5457 52.9515 63.7583 52.9515ZM55.2158 32.4192L56.0803 41.0644H47.5486V32.4192H55.2158ZM25.9358 5.40332C33.6818 5.40332 39.984 11.7055 39.984 19.4518C39.984 27.198 33.6818 33.5 25.9358 33.5C18.1897 33.5 11.8875 27.1976 11.8875 19.4515C11.8875 11.7055 18.1897 5.40332 25.9358 5.40332ZM4.32293 57.2741H3.24241C2.64693 57.2741 2.16188 56.79 2.16188 56.1934C2.16188 55.5967 2.64716 55.1126 3.24241 55.1126H4.32293V57.2741ZM17.2906 64.8385C14.3114 64.8385 11.8875 62.4146 11.8875 59.4352C11.8875 56.4557 14.3114 54.0321 17.2906 54.0321C20.2699 54.0321 22.6937 56.4559 22.6937 59.4354C22.6937 62.4148 20.2701 64.8385 17.2906 64.8385ZM24.5364 57.2741C23.6036 54.1531 20.7097 51.8708 17.2906 51.8708C13.8715 51.8708 10.9776 54.1531 10.0449 57.2741H6.48421V52.9515V22.6936H10.0525C11.5588 30.083 18.1077 35.6613 25.9358 35.6613C33.7639 35.6613 40.3125 30.083 41.8191 22.6936H45.3873V30.2582V41.0646V43.2259V57.2743H24.5364V57.2741ZM52.9517 64.8385C49.9725 64.8385 47.5486 62.4146 47.5486 59.4352C47.5486 56.4557 49.9725 54.0318 52.9517 54.0318C55.9309 54.0318 58.3548 56.4557 58.3548 59.4352C58.3548 62.4146 55.9311 64.8385 52.9517 64.8385ZM60.5165 57.2741H60.1977C59.2649 54.1531 56.371 51.8708 52.9517 51.8708C50.8358 51.8708 48.923 52.7461 47.5486 54.152V43.2257H58.4684H60.5163V52.9515V57.2741H60.5165ZM63.7583 57.2741H62.6776V55.1128H63.7583C64.3538 55.1128 64.8389 55.597 64.8389 56.1936C64.8389 56.7902 64.3536 57.2741 63.7583 57.2741Z" fill="#303030"/>
<path d="M17.2906 56.1934C15.5033 56.1934 14.0488 57.6478 14.0488 59.4354C14.0488 61.2228 15.5033 62.6774 17.2906 62.6774C19.078 62.6774 20.5324 61.223 20.5324 59.4354C20.5327 57.6478 19.078 56.1934 17.2906 56.1934ZM17.2906 60.5159C16.6952 60.5159 16.2101 60.0318 16.2101 59.4352C16.2101 58.8385 16.6954 58.3544 17.2906 58.3544C17.8859 58.3544 18.3712 58.8385 18.3712 59.4352C18.3712 60.0318 17.8861 60.5159 17.2906 60.5159Z" fill="#303030"/>
<path d="M52.9518 56.1934C51.1644 56.1934 49.71 57.6478 49.71 59.4354C49.71 61.2228 51.1644 62.6774 52.9518 62.6774C54.7391 62.6774 56.1936 61.223 56.1936 59.4354C56.1938 57.6478 54.7391 56.1934 52.9518 56.1934ZM52.9518 60.5159C52.3563 60.5159 51.871 60.0318 51.871 59.4352C51.871 58.8385 52.3563 58.3544 52.9518 58.3544C53.5473 58.3544 54.0323 58.8385 54.0323 59.4352C54.0323 60.0318 53.5473 60.5159 52.9518 60.5159Z" fill="#303030"/>
<path d="M22.694 19.4515C22.694 21.2389 24.1485 22.6936 25.9358 22.6936C27.7232 22.6936 29.1776 21.2391 29.1776 19.4515C29.1776 17.664 27.7232 16.2095 25.9358 16.2095C25.7521 16.2095 25.5748 16.2344 25.3987 16.2635L19.1915 9.02229L17.55 10.4293L23.485 17.353C22.9986 17.9203 22.694 18.6477 22.694 19.4515ZM27.0166 19.4515C27.0166 20.047 26.5313 20.5323 25.9361 20.5323C25.3406 20.5323 24.8555 20.047 24.8555 19.4515C24.8555 18.8561 25.3408 18.3708 25.9361 18.3708C26.5313 18.371 27.0166 18.8561 27.0166 19.4515Z" fill="#303030"/>
<path d="M24.9502 31.29L25.1275 29.1363C20.1274 28.7234 16.2101 24.47 16.2101 19.4517C16.2101 17.0764 17.0855 14.7854 18.675 12.998L17.0606 11.5618C15.1187 13.7447 14.0488 16.5467 14.0488 19.4514C14.0488 25.5862 18.8371 30.7862 24.9502 31.29Z" fill="#303030"/>
</svg>
