<svg width="59" height="59" viewBox="0 0 59 59" fill="none" xmlns="http://www.w3.org/2000/svg">
<g clip-path="url(#clip0_2_391)">
<path d="M57.5799 49.1462C58.0901 49.1462 58.5038 48.7326 58.5038 48.2224V9.79227C58.5038 9.55028 58.4043 9.31013 58.2332 9.13912L49.3648 0.270686C49.1934 0.0994473 48.9535 0 48.7114 0H12.2521C10.6561 0 9.35748 1.29846 9.35748 2.89457V3.94159H1.41288C0.607737 3.94159 0.189551 4.94851 0.759731 5.51857L7.98965 12.7485L0.759846 19.9784C0.189782 20.5485 0.607737 21.5554 1.41299 21.5554H9.35771V56.1055C9.35771 57.7017 10.6562 59.0001 12.2523 59.0001H55.6093C57.2054 59.0001 58.5039 57.7017 58.5039 56.1055V52.164C58.5039 51.6538 58.0903 51.2401 57.5801 51.2401C57.0698 51.2401 56.6562 51.6537 56.6562 52.164V56.1055C56.6562 56.6829 56.1865 57.1526 55.6092 57.1526H12.2522C11.6748 57.1526 11.2051 56.6829 11.2051 56.1055V21.5553H17.179C17.6892 21.5553 18.1028 21.1417 18.1028 20.6314C18.1028 20.1212 17.6893 19.7076 17.179 19.7076H3.64313L9.94921 13.4015C10.31 13.0407 10.31 12.4558 9.94921 12.0951L3.64313 5.78914H43.8461V19.7077H21.1207C20.6106 19.7077 20.1969 20.1213 20.1969 20.6316C20.1969 21.1418 20.6105 21.5554 21.1207 21.5554H44.77C45.2802 21.5554 45.6939 21.1418 45.6939 20.6316V4.86531C45.6939 4.35517 45.2803 3.94148 44.77 3.94148H11.2053V2.89446C11.2053 2.31713 11.675 1.84744 12.2523 1.84744H47.7877V7.8213C47.7877 9.41741 49.0861 10.7159 50.6823 10.7159H56.6561V48.2221C56.6561 48.7326 57.0698 49.1462 57.5799 49.1462ZM50.6821 8.86844C50.1048 8.86844 49.6351 8.39874 49.6351 7.82142V3.15396L52.4924 6.0112L55.3496 8.86844H50.6821Z" fill="black"/>
<path d="M47.7262 24.6347H20.1354C19.0826 24.6347 18.2262 25.4911 18.2262 26.5439V52.164C18.2262 53.2167 19.0826 54.0732 20.1354 54.0732H47.7262C48.7789 54.0732 49.6354 53.2167 49.6354 52.164V26.5439C49.6354 25.4911 48.7789 24.6347 47.7262 24.6347ZM47.7877 52.1639C47.7877 52.1978 47.7601 52.2254 47.7262 52.2254H20.1354C20.1014 52.2254 20.0738 52.1978 20.0738 52.1639V26.5438C20.0738 26.5098 20.1014 26.4823 20.1354 26.4823H47.7262C47.7601 26.4823 47.7877 26.5098 47.7877 26.5438V52.1639Z" fill="black"/>
<path d="M42.9511 41.3988C42.4476 41.3151 41.9718 41.6548 41.8879 42.1582L41.3696 45.2683L40.6692 43.8678C40.3355 43.2002 39.3504 43.2001 39.0168 43.8678L38.3164 45.2683L37.798 42.1582C37.7141 41.6549 37.2376 41.3149 36.7349 41.3988C36.2316 41.4827 35.8916 41.9586 35.9755 42.4619L36.9609 48.3742C37.0239 48.7522 37.3243 49.0592 37.701 49.1302C38.102 49.2057 38.5158 49.0007 38.6984 48.6355L39.8429 46.3466L40.9874 48.6355C41.1728 49.0063 41.5956 49.2106 42.0013 49.1267C42.3708 49.0504 42.6629 48.7462 42.7249 48.3742L43.7103 42.4619C43.7944 41.9586 43.4543 41.4827 42.9511 41.3988Z" fill="black"/>
<path d="M42.7992 29.5615H25.0622C24.5521 29.5615 24.1384 29.9751 24.1384 30.4854C24.1384 30.9956 24.5519 31.4092 25.0622 31.4092H42.7992C43.3093 31.4092 43.723 30.9956 43.723 30.4854C43.723 29.9751 43.3093 29.5615 42.7992 29.5615Z" fill="black"/>
<path d="M42.7992 35.4739H25.0622C24.5521 35.4739 24.1384 35.8875 24.1384 36.3977C24.1384 36.908 24.5519 37.3215 25.0622 37.3215H42.7992C43.3093 37.3215 43.723 36.908 43.723 36.3977C43.723 35.8875 43.3093 35.4739 42.7992 35.4739Z" fill="black"/>
<path d="M32.9453 41.3862H25.0622C24.5521 41.3862 24.1384 41.7997 24.1384 42.31C24.1384 42.8201 24.5519 43.2338 25.0622 43.2338H32.9453C33.4554 43.2338 33.8691 42.8203 33.8691 42.31C33.8691 41.7999 33.4555 41.3862 32.9453 41.3862Z" fill="black"/>
<path d="M32.9453 47.2985H25.0622C24.5521 47.2985 24.1384 47.7121 24.1384 48.2224C24.1384 48.7325 24.5519 49.1462 25.0622 49.1462H32.9453C33.4554 49.1462 33.8691 48.7326 33.8691 48.2224C33.8691 47.7121 33.4555 47.2985 32.9453 47.2985Z" fill="black"/>
<path d="M35.9015 14.7807H33.8691V10.7161H35.9015C36.4116 10.7161 36.8253 10.3025 36.8253 9.79224C36.8253 9.28198 36.4117 8.86841 35.9015 8.86841H32.9454C32.4352 8.86841 32.0215 9.28198 32.0215 9.79224V15.7046C32.0215 16.2147 32.4351 16.6284 32.9454 16.6284H35.9015C36.4116 16.6284 36.8253 16.2148 36.8253 15.7046C36.8253 15.1943 36.4116 14.7807 35.9015 14.7807Z" fill="black"/>
<path d="M29.9892 8.86841H26.0476C25.5374 8.86841 25.1237 9.28198 25.1237 9.79224V15.7046C25.1237 16.2147 25.5373 16.6284 26.0476 16.6284H29.9892C30.4993 16.6284 30.913 16.2148 30.913 15.7046V9.79224C30.913 9.2821 30.4993 8.86841 29.9892 8.86841ZM29.0653 14.7807H26.9714V10.7161H29.0653V14.7807Z" fill="black"/>
<path d="M21.1207 8.86841H18.1646C17.6545 8.86841 17.2408 9.28198 17.2408 9.79224V15.7046C17.2408 16.2147 17.6544 16.6284 18.1646 16.6284H23.0916C23.6017 16.6284 24.0154 16.2148 24.0154 15.7046V11.763C24.0153 10.167 22.7167 8.86841 21.1207 8.86841ZM22.1676 14.7807H19.0883V10.7161H21.1207C21.698 10.7161 22.1677 11.1858 22.1677 11.7631V14.7807H22.1676Z" fill="black"/>
</g>
<defs>
<clipPath id="clip0_2_391">
<rect width="59" height="59" fill="white"/>
</clipPath>
</defs>
</svg>
