<svg width="60" height="60" viewBox="0 0 60 60" fill="none" xmlns="http://www.w3.org/2000/svg">
<circle cx="39" cy="30" r="21" fill="#478033"/>
<path d="M57.1875 28.1251H53.4375V26.2501C53.4375 25.7324 53.0178 25.3127 52.5 25.3127H50.625V20.6251C50.625 9.25237 41.3727 0 30 0C18.6274 0 9.37512 9.25237 9.37512 20.6249V25.3125H7.50006C6.98234 25.3125 6.56259 25.7323 6.56259 26.25V28.1249H2.81259C2.29488 28.1249 1.87512 28.5447 1.87512 29.0624V41.2499C1.87512 41.7676 2.29488 42.1873 2.81259 42.1873H6.56259V44.0623C6.56259 44.58 6.98234 44.9998 7.50006 44.9998H13.1251C13.643 44.9998 14.0626 44.58 14.0626 44.0623V26.25C14.0626 25.7323 13.6428 25.3125 13.1251 25.3125H11.2501V20.6249C11.2501 10.2862 19.6612 1.87494 30 1.87494C40.3389 1.87494 48.75 10.2862 48.75 20.6249V25.3125H46.8751C46.3574 25.3125 45.9376 25.7323 45.9376 26.25V44.0625C45.9376 44.5802 46.3574 45 46.8751 45H48.75V48.75C48.75 51.3347 46.6472 53.4376 44.0626 53.4376H34.6079C34.1601 50.7807 31.8447 48.75 29.0626 48.75C25.9609 48.75 23.4375 51.2733 23.4375 54.3751C23.4375 57.4767 25.9608 60 29.0626 60C31.8447 60 34.1601 57.9693 34.6079 55.3125H44.0626C47.6812 55.3125 50.625 52.3686 50.625 48.75V45H52.5C53.0178 45 53.4375 44.5802 53.4375 44.0625V42.1876H57.1875C57.7052 42.1876 58.125 41.7678 58.125 41.2501V29.0627C58.125 28.5447 57.7052 28.1251 57.1875 28.1251ZM6.56247 40.3125H3.75006V30H6.56247V40.3125ZM12.1875 27.1875V43.1251H8.43753V27.1875H12.1875ZM29.0626 58.1251C26.9948 58.1251 25.3126 56.4429 25.3126 54.3751C25.3126 52.3073 26.9948 50.6249 29.0626 50.6249C31.1303 50.6249 32.8126 52.3073 32.8126 54.3751C32.8126 56.4429 31.1303 58.1251 29.0626 58.1251ZM51.5626 43.1251H47.8126V27.1875H51.5626V43.1251ZM56.25 40.3125H53.4375V30H56.25V40.3125Z" fill="black"/>
<path d="M30.0001 44.807V38.2446C30.0001 37.7269 29.5803 37.3071 29.0626 37.3071C28.5449 37.3071 28.1251 37.7269 28.1251 38.2446V44.807C28.1251 45.3249 28.5449 45.7445 29.0626 45.7445C29.5803 45.7446 30.0001 45.3249 30.0001 44.807Z" fill="black"/>
<path d="M33.2805 46.8751C33.6045 46.8751 33.9195 46.707 34.0932 46.4062L37.3744 40.723C37.6333 40.2746 37.4796 39.7013 37.0313 39.4424C36.583 39.1835 36.0096 39.3373 35.7507 39.7855L32.4695 45.4688C32.2106 45.9172 32.3643 46.4905 32.8126 46.7493C32.9601 46.8347 33.1214 46.8751 33.2805 46.8751Z" fill="black"/>
<path d="M24.8447 46.8751C25.0037 46.8751 25.165 46.8345 25.3125 46.7493C25.7609 46.4904 25.9146 45.917 25.6556 45.4687L22.3744 39.7855C22.1155 39.3369 21.5418 39.1834 21.0937 39.4424C20.6453 39.7013 20.4916 40.2747 20.7506 40.723L24.0318 46.4062C24.2055 46.7071 24.5205 46.8751 24.8447 46.8751Z" fill="black"/>
</svg>
