<svg width="63" height="63" viewBox="0 0 63 63" fill="none" xmlns="http://www.w3.org/2000/svg">
<circle cx="13" cy="39" r="11" fill="#478033"/>
<circle cx="50" cy="39" r="11" fill="#478033"/>
<path d="M61.7143 14.4643H35.3571V11.872C36.98 10.6539 37.9286 8.7885 37.9286 6.75C37.9286 3.20528 35.0447 0.321426 31.5 0.321426C27.9553 0.321426 25.0714 3.20528 25.0714 6.75C25.0714 8.78811 26.02 10.6536 27.6429 11.8719V14.4643H1.28571C0.575614 14.4643 0 15.04 0 15.75V19.6071C0 20.3172 0.575614 20.8929 1.28571 20.8929H11.0367L4.87774 38.25H2.57143C1.86133 38.25 1.28571 38.8257 1.28571 39.5357C1.28571 45.9162 6.47666 51.1071 12.8571 51.1071C19.2376 51.1071 24.4286 45.9162 24.4286 39.5357C24.4286 38.8257 23.853 38.25 23.1429 38.25H20.222L14.6229 20.8929H27.6429V55.6071H23.1429C21.725 55.6071 20.5714 56.7607 20.5714 58.1786V61.3929C20.5714 62.1028 21.147 62.6786 21.8571 62.6786H41.1429C41.853 62.6786 42.4286 62.1028 42.4286 61.3929V58.1786C42.4286 56.7607 41.275 55.6071 39.8571 55.6071H35.3571V20.8929H48.3224L42.1635 38.25H39.8571C39.147 38.25 38.5714 38.8257 38.5714 39.5357C38.5714 45.9162 43.7624 51.1071 50.1429 51.1071C56.5233 51.1071 61.7143 45.9162 61.7143 39.5357C61.7143 38.8257 61.1387 38.25 60.4286 38.25H57.5077L51.9087 20.8929H61.7143C62.4244 20.8929 63 20.3172 63 19.6071V15.75C63 15.04 62.4244 14.4643 61.7143 14.4643ZM21.7656 40.8214C21.1398 45.1772 17.3832 48.5357 12.8571 48.5357C10.0963 48.5357 7.62351 47.2847 5.97124 45.3214H16.0714V42.75H4.45101C4.2156 42.1363 4.04486 41.4908 3.94869 40.8214H21.7656ZM17.52 38.25H7.60616L12.7992 23.6154L17.52 38.25ZM39.8571 58.1786V60.1071H23.1429V58.1786H39.8571ZM59.0513 40.8214C58.4256 45.1772 54.669 48.5357 50.1429 48.5357C47.382 48.5357 44.9092 47.2847 43.257 45.3214H53.3571V42.75H41.7367C41.5012 42.1363 41.3306 41.4908 41.2344 40.8214H59.0513ZM54.8058 38.25H44.8919L50.0849 23.6154L54.8058 38.25ZM60.4286 18.3214H34.0714C33.3613 18.3214 32.7857 18.897 32.7857 19.6071V55.6071H30.2143V19.6071C30.2143 18.897 29.6387 18.3214 28.9286 18.3214H2.57143V17.0357H28.9286C29.6387 17.0357 30.2143 16.4601 30.2143 15.75V11.186C30.2143 10.7304 29.9732 10.3089 29.5806 10.0778C28.3672 9.36385 27.6429 8.1198 27.6429 6.75C27.6429 4.62317 29.3732 2.89285 31.5 2.89285C33.6268 2.89285 35.3571 4.62317 35.3571 6.75C35.3571 8.12005 34.6328 9.36411 33.4196 10.0778C33.0268 10.3087 32.7857 10.7303 32.7857 11.186V15.75C32.7857 16.4601 33.3613 17.0357 34.0714 17.0357H60.4286V18.3214Z" fill="black"/>
<path d="M32.7858 5.46429H30.2144V8.03572H32.7858V5.46429Z" fill="black"/>
</svg>
