<svg width="59" height="59" viewBox="0 0 59 59" fill="none" xmlns="http://www.w3.org/2000/svg">
<g clip-path="url(#clip0_8_19110)">
<path d="M2 5H45V21H2L9.56482 13.381L2 5Z" fill="#478033"/>
<path d="M57.58 49.1462C58.0902 49.1462 58.5038 48.7326 58.5038 48.2224V9.79227C58.5038 9.55028 58.4044 9.31013 58.2333 9.13912L49.3648 0.270686C49.1935 0.0994473 48.9536 0 48.7115 0H12.2521C10.6561 0 9.35754 1.29846 9.35754 2.89457V3.94159H1.41294C0.607798 3.94159 0.189613 4.94851 0.759792 5.51857L7.98971 12.7485L0.759907 19.9784C0.189843 20.5485 0.607798 21.5554 1.41306 21.5554H9.35777V56.1055C9.35777 57.7017 10.6562 59.0001 12.2523 59.0001H55.6094C57.2055 59.0001 58.504 57.7017 58.504 56.1055V52.164C58.504 51.6538 58.0904 51.2401 57.5801 51.2401C57.0699 51.2401 56.6563 51.6537 56.6563 52.164V56.1055C56.6563 56.6829 56.1866 57.1526 55.6093 57.1526H12.2522C11.6749 57.1526 11.2052 56.6829 11.2052 56.1055V21.5553H17.1791C17.6892 21.5553 18.1029 21.1417 18.1029 20.6314C18.1029 20.1212 17.6893 19.7076 17.1791 19.7076H3.64319L9.94927 13.4015C10.3101 13.0407 10.3101 12.4558 9.94927 12.0951L3.64319 5.78914H43.8461V19.7077H21.1208C20.6106 19.7077 20.1969 20.1213 20.1969 20.6316C20.1969 21.1418 20.6105 21.5554 21.1208 21.5554H44.7701C45.2802 21.5554 45.6939 21.1418 45.6939 20.6316V4.86531C45.6939 4.35517 45.2804 3.94148 44.7701 3.94148H11.2053V2.89446C11.2053 2.31713 11.675 1.84744 12.2523 1.84744H47.7877V7.8213C47.7877 9.41741 49.0862 10.7159 50.6823 10.7159H56.6562V48.2221C56.6562 48.7326 57.0699 49.1462 57.58 49.1462ZM50.6822 8.86844C50.1049 8.86844 49.6352 8.39874 49.6352 7.82142V3.15396L52.4924 6.0112L55.3496 8.86844H50.6822Z" fill="black"/>
<path d="M47.7261 24.6347H20.1353C19.0825 24.6347 18.2261 25.4911 18.2261 26.5439V52.164C18.2261 53.2167 19.0825 54.0732 20.1353 54.0732H47.7261C48.7788 54.0732 49.6353 53.2167 49.6353 52.164V26.5439C49.6353 25.4911 48.7788 24.6347 47.7261 24.6347ZM47.7876 52.1638C47.7876 52.1978 47.7601 52.2254 47.7261 52.2254H20.1353C20.1013 52.2254 20.0737 52.1978 20.0737 52.1638V26.5438C20.0737 26.5098 20.1013 26.4822 20.1353 26.4822H47.7261C47.7601 26.4822 47.7876 26.5098 47.7876 26.5438V52.1638Z" fill="black"/>
<path d="M42.951 41.3988C42.4475 41.3151 41.9717 41.6548 41.8878 42.1582L41.3695 45.2683L40.6691 43.8678C40.3354 43.2002 39.3502 43.2001 39.0166 43.8678L38.3162 45.2683L37.7979 42.1582C37.714 41.6549 37.2375 41.3149 36.7348 41.3988C36.2315 41.4827 35.8915 41.9586 35.9754 42.4619L36.9607 48.3742C37.0238 48.7522 37.3242 49.0592 37.7009 49.1302C38.1019 49.2057 38.5157 49.0007 38.6982 48.6355L39.8427 46.3466L40.9873 48.6355C41.1727 49.0063 41.5955 49.2106 42.0012 49.1267C42.3706 49.0504 42.6628 48.7462 42.7248 48.3742L43.7101 42.4619C43.7943 41.9586 43.4542 41.4827 42.951 41.3988Z" fill="black"/>
<path d="M42.7993 29.5615H25.0623C24.5521 29.5615 24.1384 29.9751 24.1384 30.4854C24.1384 30.9956 24.552 31.4092 25.0623 31.4092H42.7993C43.3094 31.4092 43.7231 30.9956 43.7231 30.4854C43.7231 29.9751 43.3094 29.5615 42.7993 29.5615Z" fill="black"/>
<path d="M42.7993 35.4739H25.0623C24.5521 35.4739 24.1384 35.8874 24.1384 36.3977C24.1384 36.908 24.552 37.3215 25.0623 37.3215H42.7993C43.3094 37.3215 43.7231 36.908 43.7231 36.3977C43.7231 35.8874 43.3094 35.4739 42.7993 35.4739Z" fill="black"/>
<path d="M32.9453 41.3862H25.0623C24.5521 41.3862 24.1384 41.7998 24.1384 42.31C24.1384 42.8202 24.552 43.2339 25.0623 43.2339H32.9453C33.4555 43.2339 33.8692 42.8203 33.8692 42.31C33.8692 41.7999 33.4556 41.3862 32.9453 41.3862Z" fill="black"/>
<path d="M32.9453 47.2985H25.0623C24.5521 47.2985 24.1384 47.7121 24.1384 48.2224C24.1384 48.7325 24.552 49.1462 25.0623 49.1462H32.9453C33.4555 49.1462 33.8692 48.7326 33.8692 48.2224C33.8692 47.7121 33.4556 47.2985 32.9453 47.2985Z" fill="black"/>
<path d="M35.9014 14.7808H33.869V10.7161H35.9014C36.4116 10.7161 36.8253 10.3025 36.8253 9.79227C36.8253 9.28201 36.4117 8.86844 35.9014 8.86844H32.9453C32.4352 8.86844 32.0215 9.28201 32.0215 9.79227V15.7046C32.0215 16.2147 32.4351 16.6284 32.9453 16.6284H35.9014C36.4116 16.6284 36.8253 16.2149 36.8253 15.7046C36.8253 15.1943 36.4116 14.7808 35.9014 14.7808Z" fill="black"/>
<path d="M29.9892 8.86844H26.0476C25.5375 8.86844 25.1238 9.28201 25.1238 9.79227V15.7046C25.1238 16.2147 25.5374 16.6284 26.0476 16.6284H29.9892C30.4993 16.6284 30.913 16.2149 30.913 15.7046V9.79227C30.913 9.28213 30.4993 8.86844 29.9892 8.86844ZM29.0654 14.7808H26.9714V10.7161H29.0654V14.7808Z" fill="black"/>
<path d="M21.1207 8.86844H18.1646C17.6544 8.86844 17.2407 9.28201 17.2407 9.79227V15.7046C17.2407 16.2147 17.6543 16.6284 18.1646 16.6284H23.0915C23.6017 16.6284 24.0154 16.2149 24.0154 15.7046V11.763C24.0152 10.167 22.7167 8.86844 21.1207 8.86844ZM22.1676 14.7808H19.0883V10.7161H21.1207C21.698 10.7161 22.1677 11.1858 22.1677 11.7631V14.7808H22.1676Z" fill="black"/>
</g>
<defs>
<clipPath id="clip0_8_19110">
<rect width="59" height="59" fill="white"/>
</clipPath>
</defs>
</svg>
