<svg width="73" height="73" viewBox="0 0 73 73" fill="none" xmlns="http://www.w3.org/2000/svg">
<g clip-path="url(#clip0_8_19058)">
<path d="M2 5H56V26H2L11.5 16L2 5Z" fill="#478033"/>
<path d="M71.243 60.808C71.8742 60.808 72.386 60.2963 72.386 59.665V12.1159C72.386 11.8164 72.263 11.5193 72.0512 11.3077L61.0784 0.334916C60.8664 0.123045 60.5696 0 60.27 0H15.1593C13.1846 0 11.5779 1.60657 11.5779 3.58142V4.87688H1.74811C0.751922 4.87688 0.234506 6.12273 0.939982 6.82807L9.88547 15.7736L0.940125 24.7191C0.234791 25.4244 0.751922 26.6702 1.74826 26.6702H11.5782V69.4187C11.5782 71.3936 13.1847 73.0001 15.1596 73.0001H68.8047C70.7796 73.0001 72.3862 71.3936 72.3862 69.4187V64.5418C72.3862 63.9106 71.8744 63.3988 71.2431 63.3988C70.6118 63.3988 70.1001 63.9105 70.1001 64.5418V69.4187C70.1001 70.133 69.5189 70.7142 68.8046 70.7142H15.1594C14.4451 70.7142 13.864 70.133 13.864 69.4187V26.6701H21.2554C21.8866 26.6701 22.3984 26.1584 22.3984 25.527C22.3984 24.8957 21.8867 24.384 21.2554 24.384H4.50757L12.31 16.5816C12.7564 16.1351 12.7564 15.4114 12.31 14.9651L4.50757 7.16284H54.2502V24.3841H26.1324C25.5012 24.3841 24.9893 24.8959 24.9893 25.5272C24.9893 26.1585 25.5011 26.6702 26.1324 26.6702H55.3934C56.0246 26.6702 56.5365 26.1585 56.5365 25.5272V6.01979C56.5365 5.3886 56.0247 4.87674 55.3934 4.87674H13.8641V3.58128C13.8641 2.86696 14.4453 2.28581 15.1596 2.28581H59.1271V9.67721C59.1271 11.6521 60.7337 13.2586 62.7085 13.2586H70.0999V59.6647C70.0999 60.2963 70.6118 60.808 71.243 60.808ZM62.7084 10.9728C61.9941 10.9728 61.4129 10.3917 61.4129 9.67735V3.90236L64.9481 7.43759L68.4834 10.9728H62.7084Z" fill="black"/>
<path d="M59.051 30.4802H24.9133C23.6107 30.4802 22.551 31.5398 22.551 32.8424V64.5418C22.551 65.8444 23.6107 66.9041 24.9133 66.9041H59.051C60.3536 66.9041 61.4132 65.8444 61.4132 64.5418V32.8424C61.4132 31.5398 60.3536 30.4802 59.051 30.4802ZM59.1272 64.5417C59.1272 64.5837 59.0931 64.6178 59.051 64.6178H24.9133C24.8712 64.6178 24.8371 64.5837 24.8371 64.5417V32.8423C24.8371 32.8002 24.8712 32.7661 24.9133 32.7661H59.051C59.0931 32.7661 59.1272 32.8002 59.1272 32.8423V64.5417Z" fill="black"/>
<path d="M52.955 36.5761H31.0093C30.3781 36.5761 29.8662 37.0879 29.8662 37.7192C29.8662 38.3505 30.3779 38.8622 31.0093 38.8622H52.955C53.5862 38.8622 54.0981 38.3505 54.0981 37.7192C54.0981 37.0879 53.5862 36.5761 52.955 36.5761Z" fill="black"/>
<path d="M52.955 43.8914H31.0093C30.3781 43.8914 29.8662 44.4031 29.8662 45.0344C29.8662 45.6658 30.3779 46.1775 31.0093 46.1775H52.955C53.5862 46.1775 54.0981 45.6658 54.0981 45.0344C54.0981 44.4031 53.5862 43.8914 52.955 43.8914Z" fill="black"/>
<path d="M40.7629 51.2067H31.0093C30.3781 51.2067 29.8662 51.7184 29.8662 52.3497C29.8662 52.9809 30.3779 53.4928 31.0093 53.4928H40.7629C41.3941 53.4928 41.9059 52.9811 41.9059 52.3497C41.9059 51.7185 41.3942 51.2067 40.7629 51.2067Z" fill="black"/>
<path d="M40.7629 58.5219H31.0093C30.3781 58.5219 29.8662 59.0336 29.8662 59.665C29.8662 60.2962 30.3779 60.808 31.0093 60.808H40.7629C41.3941 60.808 41.9059 60.2963 41.9059 59.665C41.9059 59.0336 41.3942 58.5219 40.7629 58.5219Z" fill="black"/>
<path d="M44.4205 18.2881H41.9058V13.2589H44.4205C45.0517 13.2589 45.5635 12.7472 45.5635 12.1159C45.5635 11.4845 45.0518 10.9728 44.4205 10.9728H40.7629C40.1317 10.9728 39.6199 11.4845 39.6199 12.1159V19.4311C39.6199 20.0623 40.1316 20.5742 40.7629 20.5742H44.4205C45.0517 20.5742 45.5635 20.0624 45.5635 19.4311C45.5635 18.7998 45.0517 18.2881 44.4205 18.2881Z" fill="black"/>
<path d="M37.1051 10.9728H32.2283C31.5971 10.9728 31.0852 11.4845 31.0852 12.1158V19.4311C31.0852 20.0623 31.5969 20.5741 32.2283 20.5741H37.1051C37.7363 20.5741 38.2482 20.0624 38.2482 19.4311V12.1158C38.2482 11.4846 37.7363 10.9728 37.1051 10.9728ZM35.9621 18.288H33.3713V13.2589H35.9621V18.288Z" fill="black"/>
<path d="M26.1324 10.9728H22.4748C21.8436 10.9728 21.3318 11.4845 21.3318 12.1159V19.4311C21.3318 20.0623 21.8435 20.5742 22.4748 20.5742H28.5709C29.2021 20.5742 29.714 20.0624 29.714 19.4311V14.5542C29.7138 12.5795 28.1071 10.9728 26.1324 10.9728ZM27.4277 18.2881H23.6177V13.2589H26.1324C26.8467 13.2589 27.4279 13.8401 27.4279 14.5544V18.2881H27.4277Z" fill="black"/>
</g>
<defs>
<clipPath id="clip0_8_19058">
<rect width="73" height="73" fill="white"/>
</clipPath>
</defs>
</svg>
