<svg width="80" height="80" viewBox="0 0 80 80" fill="none" xmlns="http://www.w3.org/2000/svg">
<g clip-path="url(#clip0_8_19087)">
<path d="M44.5 6L40 13.5L47 25.5L44.5 27L59.5 29L63.5 18.5L58 8.5L54.5 4.5L49.5 3L44.5 6Z" fill="#478033"/>
<path d="M69.4185 61.3971L74.5 53.8122L51.281 53.8122L51.2319 50.8971L41.9999 62.8875L49.0931 71.6016L60.5034 71.8384L65.7175 70.8074L69.5165 67.2272L69.4185 61.3971Z" fill="#478033"/>
<path d="M7 55.9999L11.5 62.4999L24.7355 42.0394L27.2845 43.4544L21.5166 29.4641L10.4233 31.25L4.51306 41.0131L2.79896 46.0442L3.99992 51.1243L7 55.9999Z" fill="#478033"/>
<path d="M30.5 1.60001C28.0313 1.74376 24.025 2.44376 21.9 5.95001L12.15 22.85L11.35 24.25L12.75 25.05L18.4 28.3L5.05002 29.95L0.300016 30.5L4.40002 32.9L5.85002 33.75L1.00002 41.95C0.393766 43 0.0375157 44.3313 1.56751e-05 45.85C-0.0374843 47.3688 0.262516 49.1063 1.25002 50.6C1.86252 51.5313 4.13127 55.5375 6.30002 59.4C8.32502 63.0063 10.1625 66.2375 11.05 67.65C11.1063 67.8125 11.1938 67.9625 11.3 68.1C11.3125 68.1188 11.3375 68.1313 11.35 68.15C12.7188 70.2063 15.2813 73.2688 19.35 73.35H40.45V65.25L48.55 76L51.45 79.8V73.35L61 73.5C62.2125 73.5 63.5188 73.075 64.85 72.35C66.1813 71.625 67.5 70.55 68.3 68.95C68.8 67.95 71.1438 63.9563 73.4 60.15C75.5438 56.5375 77.5438 53.2375 78.3 51.8C78.3813 51.6938 78.45 51.575 78.5 51.45C78.5063 51.4375 78.4938 51.4125 78.5 51.4C79.6063 49.1875 80.9625 45.4688 79 41.9V41.85L69.25 24.95L68.45 23.6L67.05 24.4L61.45 27.65L66.65 15.25L68.55 10.85L64.4 13.25L63 14.05L58.3 5.75001H58.25C57.6438 4.70001 56.6938 3.73751 55.4 2.95001C54.1313 2.17501 52.5438 1.57501 50.8 1.65001C50.7813 1.65001 50.7688 1.65001 50.75 1.65001C50.7063 1.65001 50.5938 1.65001 50.55 1.65001C47.2 1.72501 39.4188 1.63126 30.6 1.60001H30.5ZM30.55 4.80001C30.5938 4.80001 30.6063 4.80001 30.65 4.80001C36.475 4.81876 39.925 4.83751 43.9 4.85001C43.1813 5.55001 42.3125 6.15001 41.85 6.95001L38.8 12.25L38.75 12.35C38.6688 12.4563 38.6 12.575 38.55 12.7L28.35 30.35L15.7 23.05L24.65 7.60001C25.9 5.53126 28.4938 4.93126 30.55 4.80001ZM50.6 4.85001C50.6688 4.85626 50.7313 4.85626 50.8 4.85001C50.8188 4.85001 50.8313 4.85001 50.85 4.85001C51.7813 4.79376 52.825 5.16251 53.7 5.70001C54.575 6.23751 55.2938 6.99376 55.5 7.35001L61 17.05L61.8 18.45L61.9 18.4L58.25 26.9L49.15 25.8L49.2 25.75L48.4 24.35L41.95 13.15L44.6 8.55001C45.6063 6.80626 48.0938 4.91251 50.6 4.85001ZM40.1 16.4L44.8 24.55L43.4 25.4L39.25 27.8L44 28.35L57.35 30L51.65 33.25L50.3 34.05L51.1 35.45L60.85 52.4H51.45V45.95L48.55 49.8L40.45 60.55V52.4H19.3L24 44.2L25.45 45.05L29.6 47.45L27.7 43.05L22.4 30.6L28.1 33.9L29.5 34.7L30.3 33.35L40.1 16.4ZM67.3 27.95L76.2 43.4C77.3813 45.55 76.525 48.2 75.6 50.05C75.6 50.0563 75.6 50.0938 75.6 50.1C75.6 50.1063 75.55 50.1438 75.55 50.15C75.55 50.1688 75.55 50.1813 75.55 50.2C75.2438 50.7875 74.5625 51.3375 73.6 51.75C72.5938 52.1813 71.35 52.4 70.35 52.4H64.6L54.65 35.25L67.3 27.95ZM19.3 31.4L22.85 39.85L22.05 41.25L15.45 52.65C15.0313 52.9313 14.775 53.3938 14.75 53.9L11.8 59C11.4375 59.6313 11.3 60.4563 11.05 61.2C10.2813 59.8438 9.96252 59.3375 9.10002 57.8C6.93127 53.9375 4.78126 50.1438 3.90002 48.8C3.38752 48.0188 3.17502 46.975 3.20002 45.95C3.22502 44.9438 3.54377 43.975 3.75002 43.6C3.75626 43.5938 3.74377 43.5563 3.75002 43.55L9.40002 33.95L10.25 32.55L10.2 32.5L19.3 31.4ZM72.6 55.15C71.8125 56.4875 71.5438 56.9938 70.65 58.5C68.3875 62.3063 66.1688 66.0625 65.45 67.5C65.0313 68.3375 64.25 69.0563 63.35 69.55C62.45 70.0438 61.4125 70.3 61 70.3L49.85 70.15H48.25V70.3L42.65 62.9L48.25 55.5V55.6H70.35C71.0688 55.6 71.8375 55.3 72.6 55.15ZM17.45 55.6H37.25V70.15H19.4C19.3813 70.15 19.3688 70.15 19.35 70.15C16.925 70.075 15.0875 68.0688 13.95 66.35C13.95 66.3313 13.95 66.3188 13.95 66.3C13.5563 65.75 13.3688 64.8375 13.5 63.75C13.6313 62.6625 14.05 61.4625 14.55 60.6L17.45 55.6Z" fill="black"/>
</g>
<defs>
<clipPath id="clip0_8_19087">
<rect width="80" height="80" fill="white"/>
</clipPath>
</defs>
</svg>
