<svg width="69" height="69" viewBox="0 0 69 69" fill="none" xmlns="http://www.w3.org/2000/svg">
<circle cx="42.7142" cy="42.7143" r="26.2857" fill="#478033"/>
<path d="M68.4972 49.1329C68.0525 48.5632 67.3702 48.2305 66.6477 48.2305C60.6116 48.2305 55.6235 45.9912 52.3647 43.9843C57.947 42.0816 60.3817 37.6094 60.9113 34.96C61.0492 34.2706 60.8707 33.5559 60.4251 33.0122C59.9795 32.4688 59.3136 32.1534 58.6106 32.1534C51.7568 32.1534 47.9168 27.597 46.0973 24.4971C52.8307 23.2777 52.9204 18.6488 52.9204 18.4233C52.9204 17.1273 51.8699 16.0768 50.5739 16.0768C46.385 16.0768 42.1907 11.3151 39.1281 7.83814C37.9464 6.49667 36.9257 5.33868 36.0082 4.56857C35.912 4.48739 35.8099 4.41746 35.7051 4.35411C35.8688 4.25649 36.0225 4.14105 36.1582 4.00542C36.5946 3.56874 36.8459 2.96335 36.8459 2.34647C36.8459 1.72911 36.5948 1.12372 36.1582 0.687515C35.7215 0.251072 35.1184 0 34.499 0C33.8819 0 33.2765 0.251072 32.84 0.687515C32.4036 1.12372 32.1525 1.72911 32.1525 2.34647C32.1525 2.96335 32.4033 3.56874 32.84 4.00542C32.9766 4.14105 33.1305 4.25649 33.2943 4.35458C33.1894 4.41746 33.0873 4.48785 32.9911 4.56857C32.0741 5.33798 31.0539 6.4962 29.8729 7.8372C26.8101 11.3144 22.6151 16.0771 18.4257 16.0771C17.13 16.0771 16.0792 17.1276 16.0792 18.4235C16.0792 18.649 16.1684 23.2779 22.9018 24.4974C21.0812 27.5996 17.2416 32.1537 10.3893 32.1537C9.68626 32.1537 9.02033 32.469 8.57474 33.0125C8.12914 33.5559 7.95058 34.2709 8.08855 34.9603C8.61885 37.6125 11.0568 42.0905 16.6513 43.9899C13.4049 45.9955 8.42433 48.2305 2.35191 48.2305C1.62943 48.2305 0.947079 48.5632 0.502424 49.1329C0.0577685 49.7022 -0.0996794 50.4451 0.0756017 51.1457C0.123704 51.3386 1.31336 55.9194 6.31838 60.369C12.7604 66.0963 22.242 69 34.4999 69C46.7579 69 56.2395 66.0963 62.6814 60.369C67.6865 55.9194 68.8761 51.3388 68.9242 51.1457C69.0993 50.4448 68.942 49.7019 68.4972 49.1329ZM34.4997 64.3071C23.7568 64.3071 15.1775 61.8093 9.68955 57.083C7.88793 55.5317 6.69029 53.9697 5.91455 52.7089C16.7827 51.4001 23.7815 44.5198 24.1037 44.1976C24.7745 43.5267 24.9751 42.5175 24.6119 41.6409C24.2487 40.7643 23.3931 40.1922 22.4442 40.1922C18.9217 40.1922 16.2216 39.1694 14.4193 37.1519C14.2321 36.9423 14.0634 36.7316 13.9122 36.5235C18.1042 35.7339 21.8039 33.5087 24.7496 29.9735C27.5128 26.6573 28.6427 23.3251 28.6894 23.1847C28.9278 22.4693 28.8079 21.683 28.3667 21.0706C27.9256 20.4589 27.2177 20.0963 26.4633 20.0963C25.0162 20.0963 23.915 19.9534 23.0851 19.7429C27.2482 17.9172 30.6914 14.0086 33.395 10.9395C33.7758 10.5068 34.1489 10.0835 34.5004 9.69467C34.8521 10.0837 35.2254 10.5077 35.6067 10.9404C38.3094 14.0082 41.7498 17.9143 45.9108 19.7411C45.1038 19.9464 44.0101 20.0963 42.5373 20.0963C41.7829 20.0963 41.0749 20.4589 40.6338 21.0706C40.1927 21.6828 40.0728 22.4693 40.3112 23.1847C40.3579 23.3251 41.4877 26.6573 44.2507 29.9735C47.1973 33.5101 50.8982 35.7353 55.0918 36.5244C53.8282 38.2315 51.3365 40.1922 46.5558 40.1922C45.6069 40.1922 44.7514 40.7643 44.3882 41.6409C44.0249 42.5175 44.2255 43.5267 44.8964 44.1976C45.2188 44.5202 52.2258 51.4071 63.1026 52.7113C60.5574 56.8566 53.3592 64.3071 34.4997 64.3071Z" fill="#303030"/>
<path d="M14.4087 28.8076C15.0258 28.8076 15.6312 28.5565 16.0674 28.1201C16.5039 27.6839 16.7552 27.0785 16.7552 26.4611C16.7552 25.8438 16.5041 25.2384 16.0674 24.8022C15.6312 24.366 15.0258 24.1147 14.4087 24.1147C13.789 24.1147 13.1862 24.3657 12.7498 24.8022C12.311 25.2384 12.0623 25.8438 12.0623 26.4611C12.0623 27.0785 12.311 27.6839 12.7498 28.1201C13.1862 28.5563 13.7893 28.8076 14.4087 28.8076Z" fill="#303030"/>
<path d="M38.5187 28.1342C37.899 28.1342 37.2962 28.3848 36.8598 28.8217C36.4233 29.2579 36.1722 29.8633 36.1722 30.4806C36.1722 31.0998 36.4231 31.7052 36.8598 32.1391C37.2962 32.5781 37.9016 32.8292 38.5187 32.8292C39.1358 32.8292 39.7412 32.5781 40.1774 32.1391C40.6139 31.7029 40.8652 31.0996 40.8652 30.4806C40.8652 29.8633 40.6141 29.2579 40.1774 28.8217C39.7412 28.385 39.1358 28.1342 38.5187 28.1342Z" fill="#303030"/>
<path d="M34.4992 20.7686C35.1163 20.7686 35.7217 20.5196 36.1579 20.0834C36.5943 19.6444 36.8456 19.0418 36.8456 18.4245C36.8456 17.8048 36.5946 17.2022 36.1579 16.7632C35.7217 16.327 35.1163 16.078 34.4992 16.078C33.8821 16.078 33.2767 16.327 32.8402 16.7632C32.4038 17.2022 32.1527 17.8048 32.1527 18.4245C32.1527 19.0418 32.4035 19.6444 32.8402 20.0834C33.2767 20.5196 33.8821 20.7686 34.4992 20.7686Z" fill="#303030"/>
<path d="M32.1409 36.8607C31.7047 36.4216 31.0993 36.1732 30.4822 36.1732C29.8651 36.1732 29.2597 36.4216 28.8233 36.8607C28.3868 37.2948 28.1357 37.9002 28.1357 38.5196C28.1357 39.1365 28.3866 39.7419 28.8233 40.176C29.2597 40.615 29.8651 40.8661 30.4822 40.8661C31.0993 40.8661 31.7047 40.615 32.1409 40.176C32.5774 39.7398 32.8287 39.1365 32.8287 38.5196C32.8284 37.9023 32.5774 37.2969 32.1409 36.8607Z" fill="#303030"/>
<path d="M34.4992 44.2098C33.8821 44.2098 33.2767 44.4609 32.8402 44.8973C32.4038 45.3335 32.1527 45.9389 32.1527 46.5586C32.1527 47.1755 32.4035 47.7785 32.8402 48.2176C33.279 48.6538 33.8821 48.9051 34.4992 48.9051C35.1163 48.9051 35.7217 48.654 36.1579 48.2176C36.5943 47.7785 36.8456 47.1755 36.8456 46.5586C36.8456 45.9389 36.5946 45.3335 36.1579 44.8973C35.7217 44.4609 35.1186 44.2098 34.4992 44.2098Z" fill="#303030"/>
<path d="M44.8964 56.2542C45.3328 56.6904 45.9382 56.9417 46.5553 56.9417C47.1725 56.9417 47.7778 56.6906 48.214 56.2542C48.6505 55.8175 48.9018 55.2121 48.9018 54.5952C48.9018 53.9779 48.6507 53.3725 48.214 52.9363C47.7778 52.5001 47.1725 52.2488 46.5553 52.2488C45.9382 52.2488 45.3328 52.4999 44.8964 52.9363C44.4599 53.3725 44.2089 53.9779 44.2089 54.5952C44.2089 55.2145 44.4599 55.8175 44.8964 56.2542Z" fill="#303030"/>
<path d="M22.4454 52.2488C21.8283 52.2488 21.2229 52.4999 20.7841 52.9363C20.3476 53.3725 20.0966 53.9779 20.0966 54.5952C20.0966 55.2121 20.3474 55.8175 20.7841 56.2542C21.2229 56.6904 21.8257 56.9417 22.4454 56.9417C23.0625 56.9417 23.6679 56.6906 24.1017 56.2542C24.5405 55.8175 24.7895 55.2121 24.7895 54.5952C24.7895 53.9779 24.5405 53.3725 24.1017 52.9363C23.6655 52.4999 23.0625 52.2488 22.4454 52.2488Z" fill="#303030"/>
<path d="M6.36978 44.8853C6.98925 44.8853 7.59229 44.6343 8.0285 44.1978C8.46729 43.7593 8.71836 43.1562 8.71836 42.5389C8.71836 41.922 8.46729 41.3166 8.0285 40.8799C7.59229 40.4414 6.98902 40.1924 6.36978 40.1924C5.75243 40.1924 5.14962 40.4414 4.71083 40.8799C4.27439 41.3166 4.02332 41.9199 4.02332 42.5389C4.02332 43.1562 4.27415 43.7616 4.71083 44.1978C5.14751 44.6343 5.75266 44.8853 6.36978 44.8853Z" fill="#303030"/>
<path d="M60.9696 44.1978C61.4061 44.634 62.0115 44.8853 62.6286 44.8853C63.2481 44.8853 63.8511 44.6343 64.2873 44.1978C64.7238 43.7616 64.9751 43.1562 64.9751 42.5389C64.9751 41.922 64.724 41.3166 64.2873 40.8799C63.8511 40.4414 63.2478 40.1924 62.6286 40.1924C62.0115 40.1924 61.4061 40.4414 60.9696 40.8799C60.5332 41.3166 60.2821 41.922 60.2821 42.5389C60.2821 43.1562 60.5332 43.7616 60.9696 44.1978Z" fill="#303030"/>
<path d="M52.933 28.1201C53.3694 28.5563 53.9748 28.8076 54.592 28.8076C55.2091 28.8076 55.8145 28.5565 56.2507 28.1201C56.6871 27.6839 56.9384 27.0806 56.9384 26.4611C56.9384 25.8438 56.6873 25.2384 56.2507 24.8022C55.8145 24.366 55.2091 24.1147 54.592 24.1147C53.9748 24.1147 53.3694 24.3657 52.933 24.8022C52.4966 25.2384 52.2455 25.8438 52.2455 26.4611C52.2455 27.0806 52.4966 27.6836 52.933 28.1201Z" fill="#303030"/>
</svg>
