<svg width="144" height="144" viewBox="0 0 144 144" fill="none" xmlns="http://www.w3.org/2000/svg">
<g clip-path="url(#clip0_257_98)">
<circle cx="89.1423" cy="89.1429" r="54.8571" fill="#478033"/>
<path d="M142.951 102.538C142.023 101.349 140.599 100.655 139.091 100.655C126.494 100.655 116.084 95.9817 109.283 91.7933C120.933 87.8224 126.014 78.4892 127.119 72.9601C127.407 71.5213 127.035 70.0297 126.105 68.8951C125.175 67.7609 123.785 67.1028 122.318 67.1028C108.014 67.1028 100 57.5938 96.2034 51.1244C110.256 48.5795 110.443 38.9192 110.443 38.4486C110.443 35.744 108.25 33.5516 105.546 33.5516C96.8037 33.5516 88.0504 23.6142 81.6589 16.3579C79.1927 13.5583 77.0626 11.1416 75.1478 9.53441C74.9471 9.36498 74.734 9.21905 74.5152 9.08683C74.857 8.88312 75.1777 8.64218 75.4608 8.35914C76.3716 7.44781 76.8961 6.18439 76.8961 4.89698C76.8961 3.60858 76.3721 2.34516 75.4608 1.43481C74.5494 0.523977 73.2909 0 71.9981 0C70.7102 0 69.4468 0.523977 68.5359 1.43481C67.6251 2.34516 67.1011 3.60858 67.1011 4.89698C67.1011 6.18439 67.6246 7.44781 68.5359 8.35914C68.821 8.64218 69.1422 8.88312 69.484 9.08781C69.2651 9.21905 69.0521 9.36596 68.8513 9.53441C66.9376 11.1401 64.8084 13.5573 62.3437 16.3559C55.9517 23.6127 47.1969 33.5521 38.4538 33.5521C35.7497 33.5521 33.5569 35.7445 33.5569 38.4491C33.5569 38.9197 33.7429 48.58 47.7953 51.1249C43.9957 57.5992 35.9828 67.1033 21.6822 67.1033C20.2151 67.1033 18.8253 67.7614 17.8954 68.8956C16.9654 70.0297 16.5928 71.5218 16.8807 72.9605C17.9874 78.4956 23.0754 87.841 34.7507 91.8051C27.9758 95.9905 17.5815 100.655 4.90859 100.655C3.40081 100.655 1.97677 101.349 1.04879 102.538C0.120815 103.726 -0.207772 105.277 0.158032 106.739C0.25842 107.141 2.74119 116.701 13.1864 125.987C26.6306 137.94 46.4183 144 72.0001 144C97.5819 144 117.37 137.94 130.814 125.987C141.259 116.701 143.742 107.142 143.842 106.739C144.207 105.276 143.879 103.726 142.951 102.538ZM71.9996 134.206C49.5798 134.206 31.675 128.993 20.2219 119.13C16.462 115.892 13.9626 112.632 12.3437 110.001C35.025 107.27 49.6312 92.9108 50.3035 92.2385C51.7036 90.8384 52.1223 88.7322 51.3642 86.9027C50.6062 85.0732 48.8207 83.8793 46.8404 83.8793C39.4891 83.8793 33.8541 81.7447 30.0927 77.5343C29.702 77.097 29.3499 76.6573 29.0345 76.2229C37.783 74.5751 45.504 69.9313 51.6517 62.5535C57.4183 55.6326 59.7762 48.6784 59.8737 48.3856C60.3712 46.8925 60.121 45.2515 59.2004 43.9734C58.2797 42.6967 56.8023 41.9402 55.2279 41.9402C52.208 41.9402 49.9098 41.6419 48.1778 41.2027C56.866 37.3923 64.0518 29.2354 69.6941 22.8302C70.4889 21.9272 71.2675 21.0438 72.001 20.2323C72.7351 21.0443 73.5142 21.9292 74.31 22.8322C79.9503 29.2345 87.1303 37.3865 95.8141 41.1988C94.13 41.6272 91.8475 41.9402 88.7737 41.9402C87.1993 41.9402 85.7219 42.6967 84.8013 43.9734C83.8806 45.251 83.6304 46.8925 84.1279 48.3856C84.2254 48.6784 86.5833 55.6326 92.3494 62.5535C98.4991 69.9342 106.223 74.578 114.974 76.2249C112.337 79.7874 107.137 83.8793 97.1602 83.8793C95.1799 83.8793 93.3945 85.0732 92.6364 86.9027C91.8784 88.7322 92.297 90.8384 93.6971 92.2385C94.3699 92.9118 108.993 107.284 131.693 110.006C126.381 118.657 111.359 134.206 71.9996 134.206Z" fill="#303030"/>
<path d="M30.0708 60.1201C31.3587 60.1201 32.6221 59.5961 33.5325 58.6853C34.4433 57.775 34.9678 56.5115 34.9678 55.2231C34.9678 53.9348 34.4438 52.6713 33.5325 51.761C32.6221 50.8506 31.3587 50.3262 30.0708 50.3262C28.7775 50.3262 27.5195 50.8501 26.6086 51.761C25.6929 52.6713 25.1738 53.9348 25.1738 55.2231C25.1738 56.5115 25.6929 57.775 26.6086 58.6853C27.5195 59.5957 28.778 60.1201 30.0708 60.1201Z" fill="#303030"/>
<path d="M80.3872 58.7148C79.0939 58.7148 77.8359 59.2378 76.925 60.1497C76.0142 61.06 75.4902 62.3234 75.4902 63.6118C75.4902 64.9041 76.0137 66.1675 76.925 67.073C77.8359 67.9892 79.0993 68.5132 80.3872 68.5132C81.6751 68.5132 82.9385 67.9892 83.8489 67.073C84.7597 66.1626 85.2842 64.9036 85.2842 63.6118C85.2842 62.3234 84.7602 61.06 83.8489 60.1497C82.9385 59.2383 81.6751 58.7148 80.3872 58.7148Z" fill="#303030"/>
<path d="M71.9985 43.3431C73.2864 43.3431 74.5499 42.8236 75.4602 41.9132C76.371 40.997 76.8955 39.7394 76.8955 38.4511C76.8955 37.1578 76.3715 35.9002 75.4602 34.984C74.5499 34.0736 73.2864 33.5541 71.9985 33.5541C70.7106 33.5541 69.4472 34.0736 68.5364 34.984C67.6255 35.9002 67.1016 37.1578 67.1016 38.4511C67.1016 39.7394 67.625 40.997 68.5364 41.9132C69.4472 42.8236 70.7106 43.3431 71.9985 43.3431Z" fill="#303030"/>
<path d="M67.0774 76.9266C66.1671 76.0104 64.9036 75.4918 63.6157 75.4918C62.3278 75.4918 61.0644 76.0104 60.1536 76.9266C59.2427 77.8326 58.7188 79.096 58.7188 80.3888C58.7188 81.6762 59.2422 82.9396 60.1536 83.8456C61.0644 84.7618 62.3278 85.2858 63.6157 85.2858C64.9036 85.2858 66.1671 84.7618 67.0774 83.8456C67.9882 82.9352 68.5127 81.6762 68.5127 80.3888C68.5122 79.1004 67.9882 77.837 67.0774 76.9266Z" fill="#303030"/>
<path d="M71.9985 92.2639C70.7106 92.2639 69.4472 92.7879 68.5364 93.6987C67.6255 94.6091 67.1016 95.8725 67.1016 97.1658C67.1016 98.4532 67.625 99.7117 68.5364 100.628C69.4521 101.538 70.7106 102.063 71.9985 102.063C73.2864 102.063 74.5499 101.539 75.4602 100.628C76.371 99.7117 76.8955 98.4532 76.8955 97.1658C76.8955 95.8725 76.3715 94.6091 75.4602 93.6987C74.5499 92.7879 73.2913 92.2639 71.9985 92.2639Z" fill="#303030"/>
<path d="M93.6965 117.4C94.6074 118.311 95.8708 118.835 97.1587 118.835C98.4466 118.835 99.71 118.311 100.62 117.4C101.531 116.489 102.056 115.225 102.056 113.938C102.056 112.65 101.532 111.386 100.62 110.476C99.71 109.565 98.4466 109.041 97.1587 109.041C95.8708 109.041 94.6074 109.565 93.6965 110.476C92.7857 111.386 92.2617 112.65 92.2617 113.938C92.2617 115.23 92.7857 116.489 93.6965 117.4Z" fill="#303030"/>
<path d="M46.8433 109.041C45.5554 109.041 44.292 109.565 43.3762 110.476C42.4654 111.386 41.9414 112.65 41.9414 113.938C41.9414 115.225 42.4649 116.489 43.3762 117.4C44.292 118.311 45.55 118.835 46.8433 118.835C48.1312 118.835 49.3946 118.311 50.3001 117.4C51.2158 116.489 51.7354 115.225 51.7354 113.938C51.7354 112.65 51.2158 111.386 50.3001 110.476C49.3897 109.565 48.1312 109.041 46.8433 109.041Z" fill="#303030"/>
<path d="M13.2935 93.6738C14.5863 93.6738 15.8448 93.1499 16.7551 92.239C17.6709 91.3238 18.1948 90.0653 18.1948 88.7769C18.1948 87.4894 17.6709 86.226 16.7551 85.3147C15.8448 84.3994 14.5858 83.8799 13.2935 83.8799C12.0051 83.8799 10.747 84.3994 9.8313 85.3147C8.92046 86.226 8.39648 87.485 8.39648 88.7769C8.39648 90.0653 8.91997 91.3287 9.8313 92.239C10.7426 93.1499 12.0056 93.6738 13.2935 93.6738Z" fill="#303030"/>
<path d="M127.241 92.239C128.152 93.1494 129.416 93.6738 130.704 93.6738C131.997 93.6738 133.255 93.1499 134.165 92.239C135.076 91.3287 135.601 90.0653 135.601 88.7769C135.601 87.4894 135.077 86.226 134.165 85.3147C133.255 84.3994 131.996 83.8799 130.704 83.8799C129.416 83.8799 128.152 84.3994 127.241 85.3147C126.331 86.226 125.807 87.4894 125.807 88.7769C125.807 90.0653 126.331 91.3287 127.241 92.239Z" fill="#303030"/>
<path d="M110.47 58.6853C111.381 59.5957 112.644 60.1201 113.932 60.1201C115.22 60.1201 116.483 59.5961 117.394 58.6853C118.305 57.775 118.829 56.5159 118.829 55.2231C118.829 53.9348 118.305 52.6713 117.394 51.761C116.483 50.8506 115.22 50.3262 113.932 50.3262C112.644 50.3262 111.381 50.8501 110.47 51.761C109.559 52.6713 109.035 53.9348 109.035 55.2231C109.035 56.5159 109.559 57.7745 110.47 58.6853Z" fill="#303030"/>
</g>
<defs>
<clipPath id="clip0_257_98">
<rect width="144" height="144" fill="white"/>
</clipPath>
</defs>
</svg>
