<svg width="21" height="21" viewBox="0 0 21 21" fill="none" xmlns="http://www.w3.org/2000/svg">
<path d="M20.448 16.0101L17.2497 12.8118C16.5149 12.0769 15.3192 12.077 14.5845 12.8118L14.162 13.2343C13.8356 13.5607 13.4017 13.7405 12.94 13.7405C12.4783 13.7405 12.0444 13.5607 11.718 13.2343L7.76536 9.28156C7.43893 8.95514 7.25914 8.52122 7.25914 8.05956C7.25914 7.5979 7.43893 7.16398 7.76536 6.83756L8.18782 6.41509C8.92268 5.68031 8.92268 4.48462 8.18782 3.74983L4.98935 0.551512C4.25456 -0.183349 3.05886 -0.183349 2.32408 0.551512C-0.377902 3.25341 -0.770286 7.50171 1.39095 10.6529C3.8085 14.1779 6.82167 17.191 10.3466 19.6085C11.7083 20.5425 13.2745 20.9996 14.8326 20.9995C16.8803 20.9995 18.9136 20.2098 20.448 18.6755C20.8039 18.3195 21 17.8462 21 17.3428C21 16.8394 20.804 16.3661 20.448 16.0101ZM3.28359 1.51087C3.38325 1.41129 3.51578 1.35641 3.65675 1.35641C3.79772 1.35641 3.93025 1.41129 4.02991 1.51095L7.22823 4.70926C7.32789 4.80893 7.38277 4.94145 7.38277 5.08242C7.38277 5.2234 7.32789 5.35585 7.22823 5.45559L7.03788 5.64593L3.09746 1.70552C3.15815 1.63971 3.21989 1.57465 3.28359 1.51087ZM11.1141 18.4895C7.72751 16.1668 4.83269 13.272 2.50998 9.8854C1.03453 7.73412 0.99593 4.96678 2.27862 2.80577L6.20215 6.7293C6.00592 7.1394 5.90204 7.59149 5.90204 8.05956C5.90204 8.88368 6.22296 9.65842 6.80569 10.2411L10.7583 14.1937C11.3411 14.7764 12.1158 15.0974 12.9398 15.0974C13.4079 15.0974 13.86 14.9935 14.2701 14.7972L18.1937 18.7208C16.0328 20.0035 13.2654 19.965 11.1141 18.4895ZM19.4885 17.7159C19.4248 17.7797 19.3597 17.8414 19.294 17.902L15.3535 13.9616L15.5439 13.7712C15.6436 13.6716 15.7761 13.6167 15.9171 13.6167C16.058 13.6167 16.1906 13.6716 16.2902 13.7712L19.4885 16.9696C19.6943 17.1753 19.6943 17.5102 19.4885 17.7159Z" fill="white"/>
</svg>
